<svg xmlns="http://www.w3.org/2000/svg" viewBox="0 0 960 600" role="img" aria-labelledby="title desc">
  <title id="title">Placeholder 3D print image</title>
  <desc id="desc">Abstract layered 3D print preview placeholder for portfolio gallery entries.</desc>
  <defs>
    <linearGradient id="bg" x1="0" y1="0" x2="1" y2="1">
      <stop offset="0" stop-color="#f5efff"/>
      <stop offset="1" stop-color="#e8def8"/>
    </linearGradient>
    <linearGradient id="print" x1="0" y1="0" x2="1" y2="1">
      <stop offset="0" stop-color="#6750a4"/>
      <stop offset="1" stop-color="#7b6aa8"/>
    </linearGradient>
  </defs>
  <rect width="960" height="600" rx="42" fill="url(#bg)"/>
  <g transform="translate(180 125)">
    <path d="M300 0 570 150 300 300 30 150Z" fill="#fff" opacity=".84"/>
    <path d="M300 42 496 150 300 258 104 150Z" fill="url(#print)" opacity=".92"/>
    <path d="M104 150 300 258v70L104 220Z" fill="#4f378b" opacity=".82"/>
    <path d="M496 150 300 258v70l196-108Z" fill="#381e72" opacity=".74"/>
    <path d="M104 220 300 328 496 220" fill="none" stroke="#d0bcff" stroke-width="12" stroke-linecap="round" stroke-linejoin="round" opacity=".75"/>
    <path d="M145 144h310" stroke="#eaddff" stroke-width="10" stroke-linecap="round" opacity=".72"/>
    <path d="M185 117h230" stroke="#eaddff" stroke-width="10" stroke-linecap="round" opacity=".55"/>
  </g>
  <g fill="#6750a4" opacity=".64">
    <circle cx="130" cy="120" r="18"/>
    <circle cx="810" cy="120" r="12"/>
    <circle cx="830" cy="500" r="22"/>
    <circle cx="122" cy="500" r="10"/>
  </g>
  <text x="480" y="535" text-anchor="middle" font-family="Roboto, Arial, sans-serif" font-size="30" font-weight="700" fill="#4f378b">3D print photo placeholder</text>
</svg>
